HIERARCHY
ROOT Hips
{
    OFFSET 0.000000 0.000000 0.000000
    CHANNELS 6 Xposition Yposition Zposition Zrotation Xrotation Yrotation
    JOINT Spine
    {
        OFFSET -0.000000 7.236184 0.000000
        CHANNELS 3 Zrotation Xrotation Yrotation
        JOINT Spine1
        {
            OFFSET -0.000000 20.420147 0.000000
            CHANNELS 3 Zrotation Xrotation Yrotation
            JOINT Neck
            {
                OFFSET -0.000000 20.336288 1.848754
                CHANNELS 3 Zrotation Xrotation Yrotation
                JOINT Head
                {
                    OFFSET -0.000000 12.354461 -1.764923
                    CHANNELS 3 Zrotation Xrotation Yrotation
                    End Site
                    {
                        OFFSET -0.000000 22.061537 0.000000
                    }
                }
            }
            JOINT LeftShoulder
            {
                OFFSET 3.573296 18.396038 -0.314103
                CHANNELS 3 Zrotation Xrotation Yrotation
                JOINT LeftArm
                {
                    OFFSET 10.880760 0.000000 0.000000
                    CHANNELS 3 Zrotation Xrotation Yrotation
                    JOINT LeftForeArm
                    {
                        OFFSET 27.185530 0.000000 0.000000
                        CHANNELS 3 Zrotation Xrotation Yrotation
                        JOINT LeftHand
                        {
                            OFFSET 27.825975 0.000000 0.000000
                            CHANNELS 3 Zrotation Xrotation Yrotation
                            End Site
                            {
                                OFFSET 13.236923 0.000000 0.000000
                            }
                        }
                    }
                }
            }
            JOINT RightShoulder
            {
                OFFSET -3.474926 18.396038 -0.314103
                CHANNELS 3 Zrotation Xrotation Yrotation
                JOINT RightArm
                {
                    OFFSET -10.880760 0.000000 0.000000
                    CHANNELS 3 Zrotation Xrotation Yrotation
                    JOINT RightForeArm
                    {
                        OFFSET -27.185530 0.000000 0.000000
                        CHANNELS 3 Zrotation Xrotation Yrotation
                        JOINT RightHand
                        {
                            OFFSET -27.825975 0.000000 0.000000
                            CHANNELS 3 Zrotation Xrotation Yrotation
                            End Site
                            {
                                OFFSET -13.236923 0.000000 0.000000
                            }
                        }
                    }
                }
            }
        }
    }
    JOINT LeftUpLeg
    {
        OFFSET 8.824615 0.000000 0.000000
        CHANNELS 3 Zrotation Xrotation Yrotation
        JOINT LeftLeg
        {
            OFFSET -0.000000 -35.111282 0.000000
            CHANNELS 3 Zrotation Xrotation Yrotation
            JOINT LeftFoot
            {
                OFFSET -0.000000 -42.324711 0.000000
                CHANNELS 3 Zrotation Xrotation Yrotation
                JOINT LeftToeBase
                {
                    OFFSET -0.000000 -5.735999 13.236923
                    CHANNELS 3 Zrotation Xrotation Yrotation
                    End Site
                    {
                        OFFSET -0.000000 0.000000 3.529846
                    }
                }
            }
        }
    }
    JOINT RightUpLeg
    {
        OFFSET -8.824615 0.000000 0.000000
        CHANNELS 3 Zrotation Xrotation Yrotation
        JOINT RightLeg
        {
            OFFSET -0.000000 -35.111282 0.000000
            CHANNELS 3 Zrotation Xrotation Yrotation
            JOINT RightFoot
            {
                OFFSET -0.000000 -42.324711 0.000000
                CHANNELS 3 Zrotation Xrotation Yrotation
                JOINT RightToeBase
                {
                    OFFSET -0.000000 -5.735999 13.236923
                    CHANNELS 3 Zrotation Xrotation Yrotation
                    End Site
                    {
                        OFFSET -0.000000 0.000000 3.529846
                    }
                }
            }
        }
    }
}
MOTION
Frames:    10
Frame Time:    0.008333
15.932843    77.345970    114.725601    -3.371598    -23.232393    -175.395187    -2.431212    -2.390864    1.545874    -0.804080    2.800013    1.616348    2.025387    -6.982094    -2.908903    5.000700    -30.637777    -1.442830    9.870946    -5.943416    -18.092573    -22.723866    3.646544    -66.523331    13.615372    -2.496407    -13.820613    6.757901    -0.639898    3.378068    -8.913326    1.245149    14.559941    18.519514    -1.856312    55.605835    -18.605507    -5.638423    19.899744    -5.586425    -2.490632    2.825375    25.030830    -44.713448    7.986956    0.886311    36.513084    10.960976    -17.871508    8.819191    -19.211472    -1.893060    -7.187181    2.127561    -32.896793    -38.766266    -17.354507    4.548301    34.987213    2.791677    15.139509    -11.687688    -11.078920    -1.010662    -1.001047    1.094620    
15.325418    76.851013    114.940048    -3.000136    -23.411917    -175.625732    -2.468290    -2.208710    1.578818    -0.576055    2.919410    1.641145    1.976067    -7.428653    -3.139653    5.417910    -31.448643    -1.475022    10.175460    -6.588588    -18.321516    -22.353683    2.638695    -67.408409    13.845115    -2.361144    -13.819157    6.071931    -0.494467    3.420157    -9.395529    0.984771    14.953618    18.526407    -3.417124    56.563202    -18.773306    -5.658005    19.407137    -5.351125    -2.552110    2.697039    25.281172    -45.641922    8.369435    1.258209    37.909042    10.540576    -18.283863    7.406340    -18.972757    -1.879802    -7.264878    2.112999    -33.393856    -39.661610    -17.861536    4.504035    35.933834    2.936341    15.616416    -11.772606    -10.841567    -1.039224    -1.035871    1.125609    
14.703136    76.353668    115.150497    -2.633563    -23.604612    -175.852142    -2.507823    -2.041424    1.608612    -0.349365    3.033154    1.662599    1.932799    -7.810176    -3.378398    5.835381    -32.331116    -1.505779    10.473187    -7.206711    -18.536737    -21.997238    1.686384    -68.261414    14.089939    -2.178686    -13.802129    5.615587    -0.297467    3.422098    -9.855280    0.743295    15.298884    18.555201    -4.907584    57.492844    -18.975748    -5.655607    18.957281    -5.330361    -2.585447    2.578304    25.554846    -46.599312    8.833477    1.663028    39.365868    10.100232    -18.633888    5.934696    -18.791126    -1.871579    -7.255354    2.103716    -33.908745    -40.532707    -18.353376    4.450881    36.825932    3.060455    16.114708    -11.832580    -10.606235    -1.062377    -1.072338    1.150745    
14.068458    75.859482    115.355072    -2.272125    -23.808107    -176.069809    -2.550237    -1.892877    1.634037    -0.124673    3.144509    1.679620    1.896546    -8.121684    -3.625075    6.254728    -33.276985    -1.534231    10.762426    -7.791367    -18.739651    -21.656847    0.795811    -69.080200    14.347171    -1.958823    -13.771319    5.400249    -0.057887    3.384155    -10.286053    0.518511    15.597802    18.601711    -6.311588    58.384266    -19.209366    -5.633306    18.558363    -5.531845    -2.591778    2.473243    25.853470    -47.571751    9.373896    2.094368    40.849987    9.641697    -18.914495    4.434137    -18.666780    -1.865658    -7.163697    2.096664    -34.432823    -41.366573    -18.818317    4.391155    37.648605    3.161774    16.630398    -11.867061    -10.377392    -1.077259    -1.108575    1.166924    
13.425997    75.375893    115.551018    -1.916553    -24.018902    -176.274094    -2.595661    -1.767462    1.654308    0.097600    3.256973    1.691628    1.868960    -8.361744    -3.878438    6.674225    -34.268650    -1.560542    11.039870    -8.335035    -18.930916    -21.335249    -0.023174    -69.860077    14.613222    -1.713589    -13.730287    5.437092    0.212080    3.307660    -10.681460    0.309915    15.852201    18.661072    -7.610479    59.223522    -19.469784    -5.593372    18.219200    -5.963285    -2.572402    2.386746    26.177641    -48.540863    9.980929    2.541164    42.326103    9.165368    -19.126856    2.931065    -18.591364    -1.859172    -6.999942    2.088673    -34.953362    -42.148544    -19.244263    4.325756    38.385902    3.240494    17.157701    -11.875916    -10.160434    -1.082549    -1.143059    1.172711    
12.772502    74.904625    115.737869    -1.562806    -24.235525    -176.463867    -2.644303    -1.667224    1.669540    0.319527    3.374513    1.698677    1.852156    -8.535723    -4.140296    7.095714    -35.293755    -1.586609    11.306026    -8.836087    -19.112463    -21.030237    -0.769928    -70.607132    14.888755    -1.452997    -13.682840    5.737747    0.503471    3.192850    -11.039902    0.115800    16.067520    18.727707    -8.803196    60.006580    -19.755278    -5.537204    17.942785    -6.638232    -2.528656    2.323507    26.530462    -49.498817    10.650254    2.997036    43.779373    8.667760    -19.281361    1.427083    -18.553963    -1.849313    -6.771699    2.076627    -35.462593    -42.874084    -19.625244    4.253765    39.031761    3.299559    17.697638    -11.858312    -9.958211    -1.078807    -1.174525    1.168709    
12.108733    74.451042    115.913643    -1.208816    -24.455261    -176.636551    -2.695571    -1.594459    1.679882    0.541740    3.498744    1.700910    1.848500    -8.647995    -4.411089    7.517207    -36.330608    -1.615418    11.558737    -9.289320    -19.284960    -20.740812    -1.435069    -71.320793    15.173971    -1.187118    -13.633902    6.319834    0.805258    3.038975    -11.357583    -0.061749    16.246735    18.794538    -9.878608    60.722519    -20.064997    -5.466051    17.734259    -7.571336    -2.461394    2.289404    26.909761    -50.431152    11.372443    3.455594    45.187057    8.149359    -19.390316    -0.069888    -18.546297    -1.832864    -6.487042    2.056965    -35.948940    -43.532932    -19.952055    4.176248    39.574333    3.340274    18.247908    -11.812033    -9.775188    -1.067447    -1.202796    1.156448    
11.442873    74.025620    116.074516    -0.856318    -24.673115    -176.787766    -2.747728    -1.551575    1.685188    0.762058    3.628430    1.698326    1.858904    -8.703540    -4.688839    7.933495    -37.342957    -1.649971    11.793021    -9.684436    -19.445900    -20.468840    -2.001671    -71.992981    15.465788    -0.927390    -13.590092    7.195453    1.105591    2.846206    -11.628355    -0.215513    16.390135    18.852739    -10.816014    61.354378    -20.395700    -5.381227    17.598944    -8.763894    -2.371928    2.290170    27.304161    -51.313892    12.125736    3.907574    46.512192    7.619772    -19.465893    -1.535196    -18.563053    -1.807155    -6.156458    2.026757    -36.396545    -44.107746    -20.213242    4.096994    39.996262    3.361657    18.799871    -11.734132    -9.616464    -1.049835    -1.228176    1.137408    
10.772358    73.631317    116.219856    -0.501568    -24.887993    -176.915604    -2.799493    -1.539323    1.685273    0.981465    3.763542    1.690689    1.883721    -8.709913    -4.976170    8.346192    -38.311745    -1.694192    12.008350    -10.019109    -19.596327    -20.211355    -2.464963    -72.625587    15.765781    -0.678377    -13.557932    8.382391    1.398809    2.610712    -11.853264    -0.339131    16.500935    18.894739    -11.614263    61.897884    -20.751963    -5.282732    17.535978    -10.225075    -2.260938    2.330126    27.703411    -52.140442    12.894073    4.351699    47.743145    7.084924    -19.521425    -2.966075    -18.601425    -1.769794    -5.787166    1.983384    -36.800182    -44.592598    -20.405275    4.020878    40.290543    3.361012    19.353844    -11.619784    -9.482190    -1.026475    -1.252517    1.112138    
10.101162    73.275345    116.347710    -0.144491    -25.096786    -177.016251    -2.848648    -1.557305    1.679529    1.198310    3.901314    1.677461    1.922185    -8.672060    -5.273418    8.754045    -39.212498    -1.751370    12.202087    -10.286087    -19.734728    -19.966646    -2.816110    -73.214508    16.072668    -0.444609    -13.543725    9.888439    1.677782    2.329045    -12.031144    -0.423507    16.579777    18.912113    -12.263875    62.343758    -21.136396    -5.170836    17.543941    -11.946674    -2.129654    2.411881    28.089880    -52.898457    13.649847    4.780990    48.858734    6.558511    -19.565407    -4.342988    -18.659050    -1.719703    -5.388719    1.925719    -37.151962    -44.975800    -20.523935    3.954269    40.446407    3.333172    19.904716    -11.463655    -9.371967    -0.997450    -1.278126    1.080729    
